<svg width="64" height="64" viewBox="0 0 64 64" fill="none" xmlns="http://www.w3.org/2000/svg">
<path d="M36 50.5H12.8428C12.4915 50.5 12.1513 50.3767 11.8816 50.1516C11.6119 49.9265 11.4298 49.6139 11.367 49.2683L6.3603 21.7317C6.29746 21.3861 6.11532 21.0735 5.84562 20.8484C5.57592 20.6233 5.23578 20.5 4.8845 20.5H1.5" stroke="#2F4F3C" stroke-width="3" stroke-linecap="round" stroke-linejoin="round"/>
<path d="M13.5 58C15.5711 58 17.25 56.3211 17.25 54.25C17.25 52.1789 15.5711 50.5 13.5 50.5C11.4289 50.5 9.75 52.1789 9.75 54.25C9.75 56.3211 11.4289 58 13.5 58Z" stroke="#2F4F3C" stroke-width="3" stroke-linecap="round" stroke-linejoin="round"/>
<path d="M36 58C38.0711 58 39.75 56.3211 39.75 54.25C39.75 52.1789 38.0711 50.5 36 50.5C33.9289 50.5 32.25 52.1789 32.25 54.25C32.25 56.3211 33.9289 58 36 58Z" stroke="#2F4F3C" stroke-width="3" stroke-linecap="round" stroke-linejoin="round"/>
<path d="M7.5 28H40.2027C40.4224 28 40.6394 28.0483 40.8384 28.1414C41.0374 28.2345 41.2135 28.3702 41.3543 28.5389C41.4951 28.7076 41.5971 28.9051 41.6531 29.1176C41.7091 29.33 41.7178 29.5522 41.6785 29.7683L39.224 43.2683C39.1611 43.6139 38.979 43.9265 38.7093 44.1516C38.4396 44.3767 38.0994 44.5 37.7481 44.5H10.5" stroke="#2F4F3C" stroke-width="3" stroke-linecap="round" stroke-linejoin="round"/>
<rect x="20" width="44" height="44" rx="22" fill="#2F4F3C"/>
</svg>
